#N canvas 697 509 1105 1048 12;
#X obj 49 91 pigpio 26;
#X floatatom 49 123 5 0 0 0 - - -;
#X obj 49 60 metro 50;
#X obj 49 33 tgl 15 0 empty empty empty 17 7 0 10 -262144 -1 -1 0 1
;
#X obj 98 209 tgl 15 0 empty empty empty 17 7 0 10 -262144 -1 -1 0
1;
#X text 157 235 Output mode;
#X text 155 60 Input mode;
#X obj 38 238 pigpio;
#X obj 242 139 pigpio_init;
#X obj 242 112 bng 15 250 50 0 empty empty empty 17 7 0 10 -262144
-1 -1;
#X msg 35 178 14;
#X msg 81 178 15;
#X floatatom 78 155 5 0 0 0 - - -;
#X connect 0 0 1 0;
#X connect 2 0 0 0;
#X connect 3 0 2 0;
#X connect 4 0 7 1;
#X connect 9 0 8 0;
#X connect 10 0 7 0;
#X connect 11 0 7 0;
#X connect 12 0 7 0;
