#N canvas 294 198 1503 1389 10;
#X obj 66 95 metro 50;
#X obj 66 68 tgl 15 0 empty empty empty 17 7 0 10 -262144 -1 -1 1 1
;
#X obj 499 394 pigpio_init;
#X obj 66 123 pigpio_mcp23s17 24 16 20 21;
#X obj 499 367 loadbang;
#X obj 66 155 unpack f f f f f f f f f f f f f f f f;
#X obj 67 188 tgl 15 0 empty empty empty 17 7 0 10 -262144 -1 -1 0
1;
#X obj 87 188 tgl 15 0 empty empty empty 17 7 0 10 -262144 -1 -1 0
1;
#X obj 107 188 tgl 15 0 empty empty empty 17 7 0 10 -262144 -1 -1 0
1;
#X obj 127 188 tgl 15 0 empty empty empty 17 7 0 10 -262144 -1 -1 0
1;
#X obj 147 188 tgl 15 0 empty empty empty 17 7 0 10 -262144 -1 -1 0
1;
#X obj 167 188 tgl 15 0 empty empty empty 17 7 0 10 -262144 -1 -1 0
1;
#X obj 187 188 tgl 15 0 empty empty empty 17 7 0 10 -262144 -1 -1 0
1;
#X obj 207 188 tgl 15 0 empty empty empty 17 7 0 10 -262144 -1 -1 0
1;
#X obj 226 188 tgl 15 0 empty empty empty 17 7 0 10 -262144 -1 -1 0
1;
#X obj 246 188 tgl 15 0 empty empty empty 17 7 0 10 -262144 -1 -1 0
1;
#X obj 266 188 tgl 15 0 empty empty empty 17 7 0 10 -262144 -1 -1 0
1;
#X obj 286 188 tgl 15 0 empty empty empty 17 7 0 10 -262144 -1 -1 1
1;
#X obj 306 188 tgl 15 0 empty empty empty 17 7 0 10 -262144 -1 -1 0
1;
#X obj 326 188 tgl 15 0 empty empty empty 17 7 0 10 -262144 -1 -1 0
1;
#X obj 346 188 tgl 15 0 empty empty empty 17 7 0 10 -262144 -1 -1 0
1;
#X obj 366 188 tgl 15 0 empty empty empty 17 7 0 10 -262144 -1 -1 0
1;
#X text 440 238 For example \, for CS on GPIO 25 \, MISO on GPIO 6
\, MOSI on GPIO 12 and SCLK on GPIO 5 \, the command will be:;
#X text 440 56 Reads analog values from a MCP23S17 connected to the
Pi's GPIO using pigpio and bit bashing.;
#X text 440 218 Usage: pigpio_mcp23s17 cs miso mosi sclk;
#X text 439 90 This techique allows more than two SPI devices to be
connected using arbitrary CS pins. If multiple MCP23S17 devices are
used \, they can share the same MISO \, MOSI and SCLK and have different
CS lines. Note that hardware addressing is currently not supported.
If multiple ICs are connected \, it is assumed they have separate CS
lines.;
#X text 440 180 The MCP23S17's internal pull-up resistors are enabled
for all pins so external pull-up resistors aren't required.;
#X text 453 276 pigpio_mc23s17 25 6 12 5;
#X connect 0 0 3 0;
#X connect 1 0 0 0;
#X connect 3 0 5 0;
#X connect 4 0 2 0;
#X connect 5 0 6 0;
#X connect 5 1 7 0;
#X connect 5 2 8 0;
#X connect 5 3 9 0;
#X connect 5 4 10 0;
#X connect 5 5 11 0;
#X connect 5 6 12 0;
#X connect 5 7 13 0;
#X connect 5 8 14 0;
#X connect 5 9 15 0;
#X connect 5 10 16 0;
#X connect 5 11 17 0;
#X connect 5 12 18 0;
#X connect 5 13 19 0;
#X connect 5 14 20 0;
#X connect 5 15 21 0;
